<mxfile host="Electron" agent="Mozilla/5.0 (Windows NT 10.0; Win64; x64) AppleWebKit/537.36 (KHTML, like Gecko) draw.io/25.0.2 Chrome/128.0.6613.186 Electron/32.2.5 Safari/537.36" version="25.0.2">
  <diagram name="Page-1" id="5f0bae14-7c28-e335-631c-24af17079c00">
    <mxGraphModel dx="2787" dy="1040" grid="1" gridSize="10" guides="1" tooltips="1" connect="1" arrows="1" fold="1" page="1" pageScale="1" pageWidth="1100" pageHeight="850" background="none" math="0" shadow="0">
      <root>
        <mxCell id="0" />
        <mxCell id="1" parent="0" />
        <mxCell id="SMoRPLcalm1Vx6kDPG9F-9" value="Backend" style="verticalAlign=top;align=left;spacingTop=8;spacingLeft=2;spacingRight=12;shape=cube;size=10;direction=south;fontStyle=4;html=1;whiteSpace=wrap;movable=0;resizable=0;rotatable=0;deletable=0;editable=0;locked=1;connectable=0;" vertex="1" parent="1">
          <mxGeometry x="-350" y="40" width="1640" height="900" as="geometry" />
        </mxCell>
        <mxCell id="SMoRPLcalm1Vx6kDPG9F-46" value="Frontend" style="verticalAlign=top;align=left;spacingTop=8;spacingLeft=2;spacingRight=12;shape=cube;size=10;direction=south;fontStyle=4;html=1;whiteSpace=wrap;movable=0;resizable=0;rotatable=0;deletable=0;editable=0;locked=1;connectable=0;" vertex="1" parent="1">
          <mxGeometry x="1680" y="45" width="1790" height="1615" as="geometry" />
        </mxCell>
        <mxCell id="SMoRPLcalm1Vx6kDPG9F-68" value="" style="group" vertex="1" connectable="0" parent="1">
          <mxGeometry x="1725" y="120" width="600" height="300" as="geometry" />
        </mxCell>
        <mxCell id="SMoRPLcalm1Vx6kDPG9F-47" value="boot" style="shape=umlFrame;whiteSpace=wrap;html=1;pointerEvents=0;" vertex="1" parent="SMoRPLcalm1Vx6kDPG9F-68">
          <mxGeometry width="600" height="300" as="geometry" />
        </mxCell>
        <mxCell id="SMoRPLcalm1Vx6kDPG9F-48" value="auth" style="html=1;dropTarget=0;whiteSpace=wrap;" vertex="1" parent="SMoRPLcalm1Vx6kDPG9F-68">
          <mxGeometry x="70" y="50" width="180" height="90" as="geometry" />
        </mxCell>
        <mxCell id="SMoRPLcalm1Vx6kDPG9F-49" value="" style="shape=module;jettyWidth=8;jettyHeight=4;" vertex="1" parent="SMoRPLcalm1Vx6kDPG9F-48">
          <mxGeometry x="1" width="20" height="20" relative="1" as="geometry">
            <mxPoint x="-27" y="7" as="offset" />
          </mxGeometry>
        </mxCell>
        <mxCell id="SMoRPLcalm1Vx6kDPG9F-50" value="axios" style="html=1;dropTarget=0;whiteSpace=wrap;" vertex="1" parent="SMoRPLcalm1Vx6kDPG9F-68">
          <mxGeometry x="350" y="50" width="180" height="90" as="geometry" />
        </mxCell>
        <mxCell id="SMoRPLcalm1Vx6kDPG9F-51" value="" style="shape=module;jettyWidth=8;jettyHeight=4;" vertex="1" parent="SMoRPLcalm1Vx6kDPG9F-50">
          <mxGeometry x="1" width="20" height="20" relative="1" as="geometry">
            <mxPoint x="-27" y="7" as="offset" />
          </mxGeometry>
        </mxCell>
        <mxCell id="SMoRPLcalm1Vx6kDPG9F-52" value="socket" style="html=1;dropTarget=0;whiteSpace=wrap;" vertex="1" parent="SMoRPLcalm1Vx6kDPG9F-68">
          <mxGeometry x="70" y="170" width="180" height="90" as="geometry" />
        </mxCell>
        <mxCell id="SMoRPLcalm1Vx6kDPG9F-53" value="" style="shape=module;jettyWidth=8;jettyHeight=4;" vertex="1" parent="SMoRPLcalm1Vx6kDPG9F-52">
          <mxGeometry x="1" width="20" height="20" relative="1" as="geometry">
            <mxPoint x="-27" y="7" as="offset" />
          </mxGeometry>
        </mxCell>
        <mxCell id="SMoRPLcalm1Vx6kDPG9F-70" value="" style="group" vertex="1" connectable="0" parent="1">
          <mxGeometry x="-245" y="375" width="620" height="165" as="geometry" />
        </mxCell>
        <mxCell id="SMoRPLcalm1Vx6kDPG9F-20" value="start" style="shape=umlFrame;whiteSpace=wrap;html=1;pointerEvents=0;container=1;" vertex="1" parent="SMoRPLcalm1Vx6kDPG9F-70">
          <mxGeometry width="620" height="165" as="geometry" />
        </mxCell>
        <mxCell id="SMoRPLcalm1Vx6kDPG9F-74" value="" style="group" vertex="1" connectable="0" parent="1">
          <mxGeometry x="-290" y="90" width="710" height="210" as="geometry" />
        </mxCell>
        <mxCell id="SMoRPLcalm1Vx6kDPG9F-10" value=":AuthController" style="html=1;dropTarget=0;whiteSpace=wrap;" vertex="1" parent="SMoRPLcalm1Vx6kDPG9F-74">
          <mxGeometry x="40" y="60" width="180" height="90" as="geometry" />
        </mxCell>
        <mxCell id="SMoRPLcalm1Vx6kDPG9F-11" value="" style="shape=module;jettyWidth=8;jettyHeight=4;" vertex="1" parent="SMoRPLcalm1Vx6kDPG9F-10">
          <mxGeometry x="1" width="20" height="20" relative="1" as="geometry">
            <mxPoint x="-27" y="7" as="offset" />
          </mxGeometry>
        </mxCell>
        <mxCell id="SMoRPLcalm1Vx6kDPG9F-12" value=":UserController" style="html=1;dropTarget=0;whiteSpace=wrap;" vertex="1" parent="SMoRPLcalm1Vx6kDPG9F-74">
          <mxGeometry x="265" y="60" width="180" height="90" as="geometry" />
        </mxCell>
        <mxCell id="SMoRPLcalm1Vx6kDPG9F-13" value="" style="shape=module;jettyWidth=8;jettyHeight=4;" vertex="1" parent="SMoRPLcalm1Vx6kDPG9F-12">
          <mxGeometry x="1" width="20" height="20" relative="1" as="geometry">
            <mxPoint x="-27" y="7" as="offset" />
          </mxGeometry>
        </mxCell>
        <mxCell id="SMoRPLcalm1Vx6kDPG9F-16" value="&lt;b&gt;:SocketController&lt;/b&gt;" style="html=1;dropTarget=0;whiteSpace=wrap;" vertex="1" parent="SMoRPLcalm1Vx6kDPG9F-74">
          <mxGeometry x="500" y="60" width="180" height="90" as="geometry" />
        </mxCell>
        <mxCell id="SMoRPLcalm1Vx6kDPG9F-17" value="" style="shape=module;jettyWidth=8;jettyHeight=4;" vertex="1" parent="SMoRPLcalm1Vx6kDPG9F-16">
          <mxGeometry x="1" width="20" height="20" relative="1" as="geometry">
            <mxPoint x="-27" y="7" as="offset" />
          </mxGeometry>
        </mxCell>
        <mxCell id="SMoRPLcalm1Vx6kDPG9F-19" value="Controllers" style="shape=umlFrame;whiteSpace=wrap;html=1;pointerEvents=0;width=80;height=30;" vertex="1" parent="SMoRPLcalm1Vx6kDPG9F-74">
          <mxGeometry width="710" height="210" as="geometry" />
        </mxCell>
        <mxCell id="SMoRPLcalm1Vx6kDPG9F-75" value="" style="group" vertex="1" connectable="0" parent="1">
          <mxGeometry x="490" y="100" width="470" height="200" as="geometry" />
        </mxCell>
        <mxCell id="SMoRPLcalm1Vx6kDPG9F-32" value="validators" style="shape=umlFrame;whiteSpace=wrap;html=1;pointerEvents=0;width=60;height=30;" vertex="1" parent="SMoRPLcalm1Vx6kDPG9F-75">
          <mxGeometry width="470" height="200" as="geometry" />
        </mxCell>
        <mxCell id="SMoRPLcalm1Vx6kDPG9F-33" value="LoginValidator" style="html=1;dropTarget=0;whiteSpace=wrap;" vertex="1" parent="SMoRPLcalm1Vx6kDPG9F-75">
          <mxGeometry x="40" y="55" width="180" height="90" as="geometry" />
        </mxCell>
        <mxCell id="SMoRPLcalm1Vx6kDPG9F-34" value="" style="shape=module;jettyWidth=8;jettyHeight=4;" vertex="1" parent="SMoRPLcalm1Vx6kDPG9F-33">
          <mxGeometry x="1" width="20" height="20" relative="1" as="geometry">
            <mxPoint x="-27" y="7" as="offset" />
          </mxGeometry>
        </mxCell>
        <mxCell id="SMoRPLcalm1Vx6kDPG9F-35" value="RegisterValidator" style="html=1;dropTarget=0;whiteSpace=wrap;" vertex="1" parent="SMoRPLcalm1Vx6kDPG9F-75">
          <mxGeometry x="260" y="55" width="180" height="90" as="geometry" />
        </mxCell>
        <mxCell id="SMoRPLcalm1Vx6kDPG9F-36" value="" style="shape=module;jettyWidth=8;jettyHeight=4;" vertex="1" parent="SMoRPLcalm1Vx6kDPG9F-35">
          <mxGeometry x="1" width="20" height="20" relative="1" as="geometry">
            <mxPoint x="-27" y="7" as="offset" />
          </mxGeometry>
        </mxCell>
        <mxCell id="SMoRPLcalm1Vx6kDPG9F-76" value="" style="group" vertex="1" connectable="0" parent="1">
          <mxGeometry x="480" y="370" width="620" height="380" as="geometry" />
        </mxCell>
        <mxCell id="SMoRPLcalm1Vx6kDPG9F-37" value="Models" style="shape=umlFrame;whiteSpace=wrap;html=1;pointerEvents=0;" vertex="1" parent="SMoRPLcalm1Vx6kDPG9F-76">
          <mxGeometry width="620" height="380" as="geometry" />
        </mxCell>
        <mxCell id="SMoRPLcalm1Vx6kDPG9F-38" value="Channel" style="html=1;dropTarget=0;whiteSpace=wrap;" vertex="1" parent="SMoRPLcalm1Vx6kDPG9F-76">
          <mxGeometry x="80" y="60" width="180" height="90" as="geometry" />
        </mxCell>
        <mxCell id="SMoRPLcalm1Vx6kDPG9F-39" value="" style="shape=module;jettyWidth=8;jettyHeight=4;" vertex="1" parent="SMoRPLcalm1Vx6kDPG9F-38">
          <mxGeometry x="1" width="20" height="20" relative="1" as="geometry">
            <mxPoint x="-27" y="7" as="offset" />
          </mxGeometry>
        </mxCell>
        <mxCell id="SMoRPLcalm1Vx6kDPG9F-40" value="KickRequests&lt;span style=&quot;color: rgba(0, 0, 0, 0); font-family: monospace; font-size: 0px; text-align: start; text-wrap: nowrap;&quot;&gt;%3CmxGraphModel%3E%3Croot%3E%3CmxCell%20id%3D%220%22%2F%3E%3CmxCell%20id%3D%221%22%20parent%3D%220%22%2F%3E%3CmxCell%20id%3D%222%22%20value%3D%22Channel%22%20style%3D%22html%3D1%3BdropTarget%3D0%3BwhiteSpace%3Dwrap%3B%22%20vertex%3D%221%22%20parent%3D%221%22%3E%3CmxGeometry%20x%3D%22520%22%20y%3D%22460%22%20width%3D%22180%22%20height%3D%2290%22%20as%3D%22geometry%22%2F%3E%3C%2FmxCell%3E%3CmxCell%20id%3D%223%22%20value%3D%22%22%20style%3D%22shape%3Dmodule%3BjettyWidth%3D8%3BjettyHeight%3D4%3B%22%20vertex%3D%221%22%20parent%3D%222%22%3E%3CmxGeometry%20x%3D%221%22%20width%3D%2220%22%20height%3D%2220%22%20relative%3D%221%22%20as%3D%22geometry%22%3E%3CmxPoint%20x%3D%22-27%22%20y%3D%227%22%20as%3D%22offset%22%2F%3E%3C%2FmxGeometry%3E%3C%2FmxCell%3E%3C%2Froot%3E%3C%2FmxGraphModel%3E&lt;/span&gt;" style="html=1;dropTarget=0;whiteSpace=wrap;" vertex="1" parent="SMoRPLcalm1Vx6kDPG9F-76">
          <mxGeometry x="80" y="210" width="180" height="90" as="geometry" />
        </mxCell>
        <mxCell id="SMoRPLcalm1Vx6kDPG9F-41" value="" style="shape=module;jettyWidth=8;jettyHeight=4;" vertex="1" parent="SMoRPLcalm1Vx6kDPG9F-40">
          <mxGeometry x="1" width="20" height="20" relative="1" as="geometry">
            <mxPoint x="-27" y="7" as="offset" />
          </mxGeometry>
        </mxCell>
        <mxCell id="SMoRPLcalm1Vx6kDPG9F-42" value="Message" style="html=1;dropTarget=0;whiteSpace=wrap;" vertex="1" parent="SMoRPLcalm1Vx6kDPG9F-76">
          <mxGeometry x="350" y="60" width="180" height="90" as="geometry" />
        </mxCell>
        <mxCell id="SMoRPLcalm1Vx6kDPG9F-43" value="" style="shape=module;jettyWidth=8;jettyHeight=4;" vertex="1" parent="SMoRPLcalm1Vx6kDPG9F-42">
          <mxGeometry x="1" width="20" height="20" relative="1" as="geometry">
            <mxPoint x="-27" y="7" as="offset" />
          </mxGeometry>
        </mxCell>
        <mxCell id="SMoRPLcalm1Vx6kDPG9F-44" value="User" style="html=1;dropTarget=0;whiteSpace=wrap;" vertex="1" parent="SMoRPLcalm1Vx6kDPG9F-76">
          <mxGeometry x="350" y="210" width="180" height="90" as="geometry" />
        </mxCell>
        <mxCell id="SMoRPLcalm1Vx6kDPG9F-45" value="" style="shape=module;jettyWidth=8;jettyHeight=4;" vertex="1" parent="SMoRPLcalm1Vx6kDPG9F-44">
          <mxGeometry x="1" width="20" height="20" relative="1" as="geometry">
            <mxPoint x="-27" y="7" as="offset" />
          </mxGeometry>
        </mxCell>
        <mxCell id="SMoRPLcalm1Vx6kDPG9F-90" value="" style="group" vertex="1" connectable="0" parent="1">
          <mxGeometry x="2600" y="460" width="820" height="440" as="geometry" />
        </mxCell>
        <mxCell id="SMoRPLcalm1Vx6kDPG9F-79" value="pages" style="shape=umlFrame;whiteSpace=wrap;html=1;pointerEvents=0;width=90;height=30;" vertex="1" parent="SMoRPLcalm1Vx6kDPG9F-90">
          <mxGeometry width="820" height="440" as="geometry" />
        </mxCell>
        <mxCell id="SMoRPLcalm1Vx6kDPG9F-80" value="ChatPage" style="html=1;dropTarget=0;whiteSpace=wrap;" vertex="1" parent="SMoRPLcalm1Vx6kDPG9F-90">
          <mxGeometry x="70" y="70" width="180" height="90" as="geometry" />
        </mxCell>
        <mxCell id="SMoRPLcalm1Vx6kDPG9F-81" value="" style="shape=module;jettyWidth=8;jettyHeight=4;" vertex="1" parent="SMoRPLcalm1Vx6kDPG9F-80">
          <mxGeometry x="1" width="20" height="20" relative="1" as="geometry">
            <mxPoint x="-27" y="7" as="offset" />
          </mxGeometry>
        </mxCell>
        <mxCell id="SMoRPLcalm1Vx6kDPG9F-82" value="ErrorNotFound" style="html=1;dropTarget=0;whiteSpace=wrap;" vertex="1" parent="SMoRPLcalm1Vx6kDPG9F-90">
          <mxGeometry x="330" y="70" width="180" height="90" as="geometry" />
        </mxCell>
        <mxCell id="SMoRPLcalm1Vx6kDPG9F-83" value="" style="shape=module;jettyWidth=8;jettyHeight=4;" vertex="1" parent="SMoRPLcalm1Vx6kDPG9F-82">
          <mxGeometry x="1" width="20" height="20" relative="1" as="geometry">
            <mxPoint x="-27" y="7" as="offset" />
          </mxGeometry>
        </mxCell>
        <mxCell id="SMoRPLcalm1Vx6kDPG9F-84" value="IndexPage" style="html=1;dropTarget=0;whiteSpace=wrap;" vertex="1" parent="SMoRPLcalm1Vx6kDPG9F-90">
          <mxGeometry x="70" y="220" width="180" height="90" as="geometry" />
        </mxCell>
        <mxCell id="SMoRPLcalm1Vx6kDPG9F-85" value="" style="shape=module;jettyWidth=8;jettyHeight=4;" vertex="1" parent="SMoRPLcalm1Vx6kDPG9F-84">
          <mxGeometry x="1" width="20" height="20" relative="1" as="geometry">
            <mxPoint x="-27" y="7" as="offset" />
          </mxGeometry>
        </mxCell>
        <mxCell id="SMoRPLcalm1Vx6kDPG9F-86" value="LoginPage" style="html=1;dropTarget=0;whiteSpace=wrap;" vertex="1" parent="SMoRPLcalm1Vx6kDPG9F-90">
          <mxGeometry x="330" y="220" width="180" height="90" as="geometry" />
        </mxCell>
        <mxCell id="SMoRPLcalm1Vx6kDPG9F-87" value="" style="shape=module;jettyWidth=8;jettyHeight=4;" vertex="1" parent="SMoRPLcalm1Vx6kDPG9F-86">
          <mxGeometry x="1" width="20" height="20" relative="1" as="geometry">
            <mxPoint x="-27" y="7" as="offset" />
          </mxGeometry>
        </mxCell>
        <mxCell id="SMoRPLcalm1Vx6kDPG9F-88" value="RegisterPage" style="html=1;dropTarget=0;whiteSpace=wrap;" vertex="1" parent="SMoRPLcalm1Vx6kDPG9F-90">
          <mxGeometry x="600" y="220" width="180" height="90" as="geometry" />
        </mxCell>
        <mxCell id="SMoRPLcalm1Vx6kDPG9F-89" value="" style="shape=module;jettyWidth=8;jettyHeight=4;" vertex="1" parent="SMoRPLcalm1Vx6kDPG9F-88">
          <mxGeometry x="1" width="20" height="20" relative="1" as="geometry">
            <mxPoint x="-27" y="7" as="offset" />
          </mxGeometry>
        </mxCell>
        <mxCell id="SMoRPLcalm1Vx6kDPG9F-99" value="" style="group" vertex="1" connectable="0" parent="1">
          <mxGeometry x="1710" y="540" width="630" height="320" as="geometry" />
        </mxCell>
        <mxCell id="SMoRPLcalm1Vx6kDPG9F-69" value="" style="group" vertex="1" connectable="0" parent="SMoRPLcalm1Vx6kDPG9F-99">
          <mxGeometry width="630" height="320" as="geometry" />
        </mxCell>
        <mxCell id="SMoRPLcalm1Vx6kDPG9F-54" value="components" style="shape=umlFrame;whiteSpace=wrap;html=1;pointerEvents=0;width=90;height=30;" vertex="1" parent="SMoRPLcalm1Vx6kDPG9F-69">
          <mxGeometry width="630" height="320" as="geometry" />
        </mxCell>
        <mxCell id="SMoRPLcalm1Vx6kDPG9F-55" value="LoginComponent" style="html=1;dropTarget=0;whiteSpace=wrap;" vertex="1" parent="SMoRPLcalm1Vx6kDPG9F-69">
          <mxGeometry x="40" y="100" width="180" height="90" as="geometry" />
        </mxCell>
        <mxCell id="SMoRPLcalm1Vx6kDPG9F-56" value="" style="shape=module;jettyWidth=8;jettyHeight=4;" vertex="1" parent="SMoRPLcalm1Vx6kDPG9F-55">
          <mxGeometry x="1" width="20" height="20" relative="1" as="geometry">
            <mxPoint x="-27" y="7" as="offset" />
          </mxGeometry>
        </mxCell>
        <mxCell id="SMoRPLcalm1Vx6kDPG9F-59" value="RegistrationComponent" style="html=1;dropTarget=0;whiteSpace=wrap;" vertex="1" parent="SMoRPLcalm1Vx6kDPG9F-99">
          <mxGeometry x="350" y="100" width="180" height="90" as="geometry" />
        </mxCell>
        <mxCell id="SMoRPLcalm1Vx6kDPG9F-60" value="" style="shape=module;jettyWidth=8;jettyHeight=4;" vertex="1" parent="SMoRPLcalm1Vx6kDPG9F-59">
          <mxGeometry x="1" width="20" height="20" relative="1" as="geometry">
            <mxPoint x="-27" y="7" as="offset" />
          </mxGeometry>
        </mxCell>
        <mxCell id="SMoRPLcalm1Vx6kDPG9F-103" value="" style="group" vertex="1" connectable="0" parent="1">
          <mxGeometry x="1710" y="955" width="630" height="320" as="geometry" />
        </mxCell>
        <mxCell id="SMoRPLcalm1Vx6kDPG9F-95" value="" style="group" vertex="1" connectable="0" parent="SMoRPLcalm1Vx6kDPG9F-103">
          <mxGeometry width="630" height="320" as="geometry" />
        </mxCell>
        <mxCell id="SMoRPLcalm1Vx6kDPG9F-104" value="" style="group" vertex="1" connectable="0" parent="SMoRPLcalm1Vx6kDPG9F-95">
          <mxGeometry width="630" height="320" as="geometry" />
        </mxCell>
        <mxCell id="SMoRPLcalm1Vx6kDPG9F-96" value="router" style="shape=umlFrame;whiteSpace=wrap;html=1;pointerEvents=0;width=90;height=30;" vertex="1" parent="SMoRPLcalm1Vx6kDPG9F-104">
          <mxGeometry width="630" height="320" as="geometry" />
        </mxCell>
        <mxCell id="SMoRPLcalm1Vx6kDPG9F-97" value="index" style="html=1;dropTarget=0;whiteSpace=wrap;" vertex="1" parent="SMoRPLcalm1Vx6kDPG9F-104">
          <mxGeometry x="90" y="95" width="180" height="90" as="geometry" />
        </mxCell>
        <mxCell id="SMoRPLcalm1Vx6kDPG9F-98" value="" style="shape=module;jettyWidth=8;jettyHeight=4;" vertex="1" parent="SMoRPLcalm1Vx6kDPG9F-97">
          <mxGeometry x="1" width="20" height="20" relative="1" as="geometry">
            <mxPoint x="-27" y="7" as="offset" />
          </mxGeometry>
        </mxCell>
        <mxCell id="SMoRPLcalm1Vx6kDPG9F-100" value="routes" style="html=1;dropTarget=0;whiteSpace=wrap;" vertex="1" parent="SMoRPLcalm1Vx6kDPG9F-103">
          <mxGeometry x="360" y="95" width="180" height="90" as="geometry" />
        </mxCell>
        <mxCell id="SMoRPLcalm1Vx6kDPG9F-101" value="" style="shape=module;jettyWidth=8;jettyHeight=4;" vertex="1" parent="SMoRPLcalm1Vx6kDPG9F-100">
          <mxGeometry x="1" width="20" height="20" relative="1" as="geometry">
            <mxPoint x="-27" y="7" as="offset" />
          </mxGeometry>
        </mxCell>
        <mxCell id="SMoRPLcalm1Vx6kDPG9F-121" value="" style="group" vertex="1" connectable="0" parent="1">
          <mxGeometry x="1710" y="1390" width="285" height="160" as="geometry" />
        </mxCell>
        <mxCell id="SMoRPLcalm1Vx6kDPG9F-106" value="" style="group" vertex="1" connectable="0" parent="SMoRPLcalm1Vx6kDPG9F-121">
          <mxGeometry width="285" height="160" as="geometry" />
        </mxCell>
        <mxCell id="SMoRPLcalm1Vx6kDPG9F-107" value="" style="group" vertex="1" connectable="0" parent="SMoRPLcalm1Vx6kDPG9F-106">
          <mxGeometry width="285" height="160" as="geometry" />
        </mxCell>
        <mxCell id="SMoRPLcalm1Vx6kDPG9F-108" value="services" style="shape=umlFrame;whiteSpace=wrap;html=1;pointerEvents=0;width=70;height=30;" vertex="1" parent="SMoRPLcalm1Vx6kDPG9F-107">
          <mxGeometry width="285" height="160" as="geometry" />
        </mxCell>
        <mxCell id="SMoRPLcalm1Vx6kDPG9F-109" value="socket" style="html=1;dropTarget=0;whiteSpace=wrap;" vertex="1" parent="SMoRPLcalm1Vx6kDPG9F-121">
          <mxGeometry x="52.5" y="50" width="180" height="90" as="geometry" />
        </mxCell>
        <mxCell id="SMoRPLcalm1Vx6kDPG9F-110" value="" style="shape=module;jettyWidth=8;jettyHeight=4;" vertex="1" parent="SMoRPLcalm1Vx6kDPG9F-109">
          <mxGeometry x="1" width="20" height="20" relative="1" as="geometry">
            <mxPoint x="-27" y="7" as="offset" />
          </mxGeometry>
        </mxCell>
        <mxCell id="SMoRPLcalm1Vx6kDPG9F-124" value="" style="group" vertex="1" connectable="0" parent="1">
          <mxGeometry x="2600" y="120" width="610" height="280" as="geometry" />
        </mxCell>
        <mxCell id="SMoRPLcalm1Vx6kDPG9F-61" value="layouts" style="shape=umlFrame;whiteSpace=wrap;html=1;pointerEvents=0;width=90;height=30;" vertex="1" parent="SMoRPLcalm1Vx6kDPG9F-124">
          <mxGeometry width="610" height="280" as="geometry" />
        </mxCell>
        <mxCell id="SMoRPLcalm1Vx6kDPG9F-62" value="MainLayout" style="html=1;dropTarget=0;whiteSpace=wrap;" vertex="1" parent="SMoRPLcalm1Vx6kDPG9F-124">
          <mxGeometry x="60" y="100" width="180" height="90" as="geometry" />
        </mxCell>
        <mxCell id="SMoRPLcalm1Vx6kDPG9F-63" value="" style="shape=module;jettyWidth=8;jettyHeight=4;" vertex="1" parent="SMoRPLcalm1Vx6kDPG9F-62">
          <mxGeometry x="1" width="20" height="20" relative="1" as="geometry">
            <mxPoint x="-27" y="7" as="offset" />
          </mxGeometry>
        </mxCell>
        <mxCell id="SMoRPLcalm1Vx6kDPG9F-64" value="SignInLayout" style="html=1;dropTarget=0;whiteSpace=wrap;" vertex="1" parent="SMoRPLcalm1Vx6kDPG9F-124">
          <mxGeometry x="340" y="100" width="180" height="90" as="geometry" />
        </mxCell>
        <mxCell id="SMoRPLcalm1Vx6kDPG9F-65" value="" style="shape=module;jettyWidth=8;jettyHeight=4;" vertex="1" parent="SMoRPLcalm1Vx6kDPG9F-64">
          <mxGeometry x="1" width="20" height="20" relative="1" as="geometry">
            <mxPoint x="-27" y="7" as="offset" />
          </mxGeometry>
        </mxCell>
        <mxCell id="SMoRPLcalm1Vx6kDPG9F-125" value="" style="group" vertex="1" connectable="0" parent="1">
          <mxGeometry x="2600" y="980" width="630" height="460" as="geometry" />
        </mxCell>
        <mxCell id="SMoRPLcalm1Vx6kDPG9F-113" value="" style="group" vertex="1" connectable="0" parent="SMoRPLcalm1Vx6kDPG9F-125">
          <mxGeometry width="630" height="460" as="geometry" />
        </mxCell>
        <mxCell id="SMoRPLcalm1Vx6kDPG9F-114" value="" style="group" vertex="1" connectable="0" parent="SMoRPLcalm1Vx6kDPG9F-113">
          <mxGeometry width="630" height="460" as="geometry" />
        </mxCell>
        <mxCell id="SMoRPLcalm1Vx6kDPG9F-115" value="" style="group" vertex="1" connectable="0" parent="SMoRPLcalm1Vx6kDPG9F-114">
          <mxGeometry width="630" height="460" as="geometry" />
        </mxCell>
        <mxCell id="SMoRPLcalm1Vx6kDPG9F-116" value="stores" style="shape=umlFrame;whiteSpace=wrap;html=1;pointerEvents=0;width=90;height=30;" vertex="1" parent="SMoRPLcalm1Vx6kDPG9F-115">
          <mxGeometry width="630" height="460" as="geometry" />
        </mxCell>
        <mxCell id="SMoRPLcalm1Vx6kDPG9F-117" value="index" style="html=1;dropTarget=0;whiteSpace=wrap;" vertex="1" parent="SMoRPLcalm1Vx6kDPG9F-115">
          <mxGeometry x="70" y="130" width="180" height="90" as="geometry" />
        </mxCell>
        <mxCell id="SMoRPLcalm1Vx6kDPG9F-118" value="" style="shape=module;jettyWidth=8;jettyHeight=4;" vertex="1" parent="SMoRPLcalm1Vx6kDPG9F-117">
          <mxGeometry x="1" width="20" height="20" relative="1" as="geometry">
            <mxPoint x="-27" y="7" as="offset" />
          </mxGeometry>
        </mxCell>
        <mxCell id="SMoRPLcalm1Vx6kDPG9F-119" value="models" style="html=1;dropTarget=0;whiteSpace=wrap;" vertex="1" parent="SMoRPLcalm1Vx6kDPG9F-125">
          <mxGeometry x="370" y="130" width="180" height="90" as="geometry" />
        </mxCell>
        <mxCell id="SMoRPLcalm1Vx6kDPG9F-120" value="" style="shape=module;jettyWidth=8;jettyHeight=4;" vertex="1" parent="SMoRPLcalm1Vx6kDPG9F-119">
          <mxGeometry x="1" width="20" height="20" relative="1" as="geometry">
            <mxPoint x="-27" y="7" as="offset" />
          </mxGeometry>
        </mxCell>
        <mxCell id="SMoRPLcalm1Vx6kDPG9F-122" value="user" style="html=1;dropTarget=0;whiteSpace=wrap;" vertex="1" parent="SMoRPLcalm1Vx6kDPG9F-125">
          <mxGeometry x="70" y="290" width="180" height="90" as="geometry" />
        </mxCell>
        <mxCell id="SMoRPLcalm1Vx6kDPG9F-123" value="" style="shape=module;jettyWidth=8;jettyHeight=4;" vertex="1" parent="SMoRPLcalm1Vx6kDPG9F-122">
          <mxGeometry x="1" width="20" height="20" relative="1" as="geometry">
            <mxPoint x="-27" y="7" as="offset" />
          </mxGeometry>
        </mxCell>
        <mxCell id="SMoRPLcalm1Vx6kDPG9F-21" value="routes" style="html=1;dropTarget=0;whiteSpace=wrap;" vertex="1" parent="1">
          <mxGeometry x="-160" y="425" width="180" height="90" as="geometry" />
        </mxCell>
        <mxCell id="SMoRPLcalm1Vx6kDPG9F-22" value="" style="shape=module;jettyWidth=8;jettyHeight=4;" vertex="1" parent="SMoRPLcalm1Vx6kDPG9F-21">
          <mxGeometry x="1" width="20" height="20" relative="1" as="geometry">
            <mxPoint x="-27" y="7" as="offset" />
          </mxGeometry>
        </mxCell>
        <mxCell id="SMoRPLcalm1Vx6kDPG9F-23" value="socket" style="html=1;dropTarget=0;whiteSpace=wrap;" vertex="1" parent="1">
          <mxGeometry x="120" y="425" width="180" height="90" as="geometry" />
        </mxCell>
        <mxCell id="SMoRPLcalm1Vx6kDPG9F-24" value="" style="shape=module;jettyWidth=8;jettyHeight=4;" vertex="1" parent="SMoRPLcalm1Vx6kDPG9F-23">
          <mxGeometry x="1" width="20" height="20" relative="1" as="geometry">
            <mxPoint x="-27" y="7" as="offset" />
          </mxGeometry>
        </mxCell>
      </root>
    </mxGraphModel>
  </diagram>
</mxfile>
